<?xml version="1.0" standalone="no"?>
<!DOCTYPE svg PUBLIC "-//W3C//DTD SVG 20010904//EN"
 "http://www.w3.org/TR/2001/REC-SVG-20010904/DTD/svg10.dtd">
<svg version="1.0" xmlns="http://www.w3.org/2000/svg"
 width="260.000000pt" height="260.000000pt" viewBox="0 0 260.000000 260.000000"
 preserveAspectRatio="xMidYMid meet">
<metadata>
Created by potrace 1.11, written by Peter Selinger 2001-2013
</metadata>
<g transform="translate(0.000000,260.000000) scale(0.100000,-0.100000)"
fill="#000000" stroke="none">
<path d="M23 2563 c-25 -5 -32 -33 -8 -33 13 0 15 -143 15 -1231 0 -1090 -2
-1230 -15 -1225 -10 3 -15 -1 -15 -13 0 -13 10 -20 31 -25 41 -8 2517 -8 2547
0 23 7 27 41 5 37 -8 -2 -12 332 -12 1223 -1 1078 1 1225 14 1230 22 9 18 31
-7 38 -26 6 -2520 6 -2555 -1z"/>
</g>
</svg>
